<?xml version="1.0" standalone="no"?><!DOCTYPE svg PUBLIC "-//W3C//DTD SVG 1.1//EN" "http://www.w3.org/Graphics/SVG/1.1/DTD/svg11.dtd"><svg t="1617280633765" class="icon" viewBox="0 0 1024 1024" version="1.1" xmlns="http://www.w3.org/2000/svg" p-id="1253" xmlns:xlink="http://www.w3.org/1999/xlink" width="200" height="200"><defs><style type="text/css"></style></defs><path d="M544 311.466667c-14.933333-17.066667-40.533333-17.066667-57.6-4.266667l-2.133333 2.133333-85.333334 78.933334-27.733333-25.6-2.133333-2.133334c-17.066667-12.8-42.666667-12.8-57.6 4.266667-14.933333 17.066667-14.933333 40.533333 0 57.6l2.133333 2.133333 57.6 53.333334 2.133333 2.133333c14.933333 12.8 36.266667 12.8 53.333334 0l2.133333-2.133333 113.066667-106.666667 2.133333-2.133333c14.933333-14.933333 14.933333-40.533333 0-57.6zM682.666667 405.333333h-85.333334c-23.466667 0-42.666667 19.2-42.666666 42.666667s17.066667 40.533333 40.533333 42.666667H682.666667c23.466667 0 42.666667-19.2 42.666666-42.666667s-17.066667-40.533333-42.666666-42.666667z m0 192H341.333333c-23.466667 0-42.666667 19.2-42.666666 42.666667s17.066667 40.533333 40.533333 42.666667H682.666667c23.466667 0 42.666667-19.2 42.666666-42.666667s-17.066667-40.533333-42.666666-42.666667z m85.333333-533.333333c70.4 0 128 57.6 128 128v640c0 70.4-57.6 128-128 128H256c-70.4 0-128-57.6-128-128V192c0-70.4 57.6-128 128-128h512z" p-id="1254"></path></svg>