<?xml version="1.0" standalone="no"?><!DOCTYPE svg PUBLIC "-//W3C//DTD SVG 1.1//EN" "http://www.w3.org/Graphics/SVG/1.1/DTD/svg11.dtd"><svg t="1621490823185" class="icon" viewBox="0 0 1024 1024" version="1.1" xmlns="http://www.w3.org/2000/svg" p-id="5700" width="12" height="12" xmlns:xlink="http://www.w3.org/1999/xlink"><defs><style type="text/css"></style></defs><path d="M886.6 98.2c-7.2 2.2-35.4 27.6-39.8 36.4-4.8 8.8-2 14.8 13.6 30.8 21.8 22 26.8 21.6 51-4.2 19.8-20.6 23-33.4 12.6-50.4-4.6-7-18.4-15-26.2-14.6-2.6 0-7.6 1-11.2 2zM618.8 360.4l-184.4 184.6-9.2 28.2c-9.2 28-9.8 33.4-3.8 35.8 1.8 0.6 16-3 31.4-8.2l28.2-9.2 184.6-184.4 184.4-184.2v-8.8c0-8.4-0.8-9.8-14.6-23.6-13.8-13.8-15.2-14.6-23.6-14.6h-8.8l-184.2 184.4z" p-id="5701" fill="#e6e6e6"></path><path d="M194 225.4c-44.6 7-82.2 40.2-94.2 83.6-4.2 14.8-4.2 521.2 0 536 10.6 38.2 43 70.6 81.2 81.2 14.8 4.2 521.2 4.2 536 0 29.4-8.2 58-31 71.2-57.2 13.6-26.4 12.8-11.8 12.8-255.6V391.6l-4.8-3.8c-2.6-2.2-7.8-3.8-11.8-3.8-7 0-13.2 5.8-136.4 128.8-71 70.8-132.2 130.4-136 132.6-3.8 2.2-22.6 9.2-41.8 15.6-32.6 10.8-35.6 11.4-50 10.6-36-2-63.8-30.2-65.8-66.6-0.8-12.8 0.2-17.4 9.6-46 5.8-17.6 12.4-36 14.6-41 3-6.8 34.6-39.6 133.8-139 123.4-124 129.6-130.4 129.6-137.4 0-4-1.6-9.2-3.8-11.8l-3.8-4.8-217.8-0.2c-119.6-0.2-219.8 0-222.6 0.6z" p-id="5702" fill="#e6e6e6"></path></svg>