<?xml version="1.0" standalone="no"?><!DOCTYPE svg PUBLIC "-//W3C//DTD SVG 1.1//EN" "http://www.w3.org/Graphics/SVG/1.1/DTD/svg11.dtd"><svg t="1623238608524" class="icon" viewBox="0 0 1024 1024" version="1.1" xmlns="http://www.w3.org/2000/svg" p-id="2901" width="48" height="48" xmlns:xlink="http://www.w3.org/1999/xlink"><defs><style type="text/css"></style></defs><path d="M513 524.652m-429.522 0a429.522 429.522 0 1 0 859.044 0 429.522 429.522 0 1 0-859.044 0Z" fill="#78C06E" p-id="2902"></path><path d="M794.07 408.363L464.187 738.246c-7.791 7.791-18.555 12.611-30.443 12.611-11.887 0-22.651-4.82-30.442-12.611L216.874 551.778a42.753 42.753 0 0 1-12.61-30.402c0-23.774 19.278-43.012 43.013-43.012 11.887 0 22.649 4.82 30.442 12.61l156.025 155.985 299.481-299.481c7.791-7.75 18.555-12.57 30.442-12.57 23.736 0 43.013 19.278 43.013 43.013 0.001 11.887-4.819 22.649-12.61 30.442z" fill="#FFFFFF" p-id="2903"></path></svg>